<?xml version="1.0" encoding="iso-8859-1"?>
<!-- Generator: Adobe Illustrator 19.0.0, SVG Export Plug-In . SVG Version: 6.00 Build 0)  -->
<svg version="1.1" id="Layer_1" xmlns="http://www.w3.org/2000/svg" xmlns:xlink="http://www.w3.org/1999/xlink" x="0px" y="0px"
	 viewBox="0 0 346.164 346.164" style="enable-background:new 0 0 346.164 346.164;" xml:space="preserve">
<g>
	<polygon style="fill:#E4E4E4;" points="0,67.573 28.847,42.591 57.694,67.573 86.541,42.591 115.388,67.573 144.235,42.591 
		173.082,67.573 201.929,42.591 230.776,67.573 259.623,42.591 288.47,67.573 317.317,42.591 346.164,67.573 346.164,303.573 
		0,303.573 	"/>
	<rect x="224.082" y="136.239" style="fill:#5C6670;" width="96" height="18.667"/>
	<rect x="224.082" y="168.082" style="fill:#A4A9AD;" width="96" height="109.491"/>
	<rect x="26.157" y="136.239" style="fill:#333E48;" width="125.077" height="18.667"/>
	<rect x="26.157" y="180.573" style="fill:#5C6670;" width="167.925" height="10"/>
	<rect x="26.157" y="205.906" style="fill:#5C6670;" width="167.925" height="10"/>
	<rect x="26.157" y="231.239" style="fill:#5C6670;" width="167.925" height="10"/>
	<rect x="26.157" y="256.572" style="fill:#5C6670;" width="167.925" height="10"/>
	<rect x="26.157" y="101.573" style="fill:#FF5959;" width="293.925" height="8"/>
</g>
<g>
</g>
<g>
</g>
<g>
</g>
<g>
</g>
<g>
</g>
<g>
</g>
<g>
</g>
<g>
</g>
<g>
</g>
<g>
</g>
<g>
</g>
<g>
</g>
<g>
</g>
<g>
</g>
<g>
</g>
</svg>
